<svg width="28" height="28" viewBox="0 0 28 28" fill="none" xmlns="http://www.w3.org/2000/svg">
<path d="M14 0.25C21.5939 0.25 27.75 6.40608 27.75 14C27.75 21.5939 21.5939 27.75 14 27.75C6.40608 27.75 0.25 21.5939 0.25 14C0.25 6.40608 6.40608 0.25 14 0.25ZM21.75 14C21.75 18.2802 18.2802 21.75 14 21.75C9.71979 21.75 6.25 18.2802 6.25 14C6.25 9.71979 9.71979 6.25 14 6.25C18.2802 6.25 21.75 9.71979 21.75 14ZM22.25 14C22.25 9.44365 18.5563 5.75 14 5.75C9.44365 5.75 5.75 9.44365 5.75 14C5.75 18.5563 9.44365 22.25 14 22.25C18.5563 22.25 22.25 18.5563 22.25 14Z" stroke="#7F7F7F" stroke-width="0.5"/>
</svg>
